# xmcd CD database file generated by Grip 3.0.0
# 
# Track frame offsets:
#       150
#       19912
#       39610
#       57486
#       81604
#       102585
#       126403
#       145446
#       164274
#       186332
#       205599
#       219662
#       238465
# 
# Disc length: 3336 seconds
# 
# Revision: 0
# Processed by: cddbd v1.5.1PL0 Copyright (c) Steve Scherf et al.
# Submitted via: Grip 3.0.0
# 
DISCID=d20d060d
DTITLE=Keb' Mo' - Slow Down
DYEAR=1998
DGENRE=Blues
TTITLE0=Muddy Water
TTITLE1=I Was Wrong
TTITLE2=Everything I Need
TTITLE3=Henry
TTITLE4=Soon As I Get Paid
TTITLE5=A Better Man
TTITLE6=I Don't Know
TTITLE7=A Letter To Tracy
TTITLE8=Slow Down
TTITLE9=Rainmaker
TTITLE10=Love In Vain
TTITLE11=God Trying To Get Your Attention
TTITLE12=I'm Telling You Now
EXTD=
EXTT0=
EXTT1=
EXTT2=
EXTT3=
EXTT4=
EXTT5=
EXTT6=
EXTT7=
EXTT8=
EXTT9=
EXTT10=
EXTT11=
EXTT12=
PLAYORDER=
